<svg xmlns="http://www.w3.org/2000/svg" viewBox="0 0 37 40" role="img" aria-label="QR code SD - Safety Detect"><title>QR code SD - Safety Detect</title><rect width="37" height="40" fill="#fff"/><path d="M4 4h7v1h-7zM12 4h3v1h-3zM18 4h1v1h-1zM20 4h5v1h-5zM26 4h7v1h-7zM4 5h1v1h-1zM10 5h1v1h-1zM12 5h2v1h-2zM16 5h1v1h-1zM18 5h1v1h-1zM21 5h2v1h-2zM24 5h1v1h-1zM26 5h1v1h-1zM32 5h1v1h-1zM4 6h1v1h-1zM6 6h3v1h-3zM10 6h1v1h-1zM17 6h1v1h-1zM20 6h1v1h-1zM26 6h1v1h-1zM28 6h3v1h-3zM32 6h1v1h-1zM4 7h1v1h-1zM6 7h3v1h-3zM10 7h1v1h-1zM12 7h1v1h-1zM16 7h2v1h-2zM19 7h3v1h-3zM26 7h1v1h-1zM28 7h3v1h-3zM32 7h1v1h-1zM4 8h1v1h-1zM6 8h3v1h-3zM10 8h1v1h-1zM13 8h11v1h-11zM26 8h1v1h-1zM28 8h3v1h-3zM32 8h1v1h-1zM4 9h1v1h-1zM10 9h1v1h-1zM13 9h1v1h-1zM18 9h1v1h-1zM22 9h3v1h-3zM26 9h1v1h-1zM32 9h1v1h-1zM4 10h7v1h-7zM12 10h1v1h-1zM14 10h1v1h-1zM16 10h1v1h-1zM18 10h1v1h-1zM20 10h1v1h-1zM22 10h1v1h-1zM24 10h1v1h-1zM26 10h7v1h-7zM12 11h2v1h-2zM21 11h2v1h-2zM4 12h1v1h-1zM6 12h2v1h-2zM9 12h3v1h-3zM13 12h3v1h-3zM18 12h1v1h-1zM20 12h3v1h-3zM26 12h1v1h-1zM29 12h1v1h-1zM31 12h2v1h-2zM4 13h1v1h-1zM6 13h1v1h-1zM8 13h1v1h-1zM12 13h1v1h-1zM16 13h1v1h-1zM18 13h1v1h-1zM20 13h1v1h-1zM23 13h1v1h-1zM25 13h4v1h-4zM32 13h1v1h-1zM10 14h4v1h-4zM16 14h1v1h-1zM18 14h1v1h-1zM25 14h2v1h-2zM28 14h1v1h-1zM30 14h2v1h-2zM5 15h1v1h-1zM7 15h1v1h-1zM13 15h1v1h-1zM15 15h1v1h-1zM17 15h3v1h-3zM22 15h1v1h-1zM24 15h2v1h-2zM32 15h1v1h-1zM4 16h1v1h-1zM6 16h7v1h-7zM15 16h1v1h-1zM17 16h1v1h-1zM21 16h1v1h-1zM23 16h1v1h-1zM29 16h2v1h-2zM5 17h1v1h-1zM8 17h1v1h-1zM14 17h2v1h-2zM17 17h3v1h-3zM23 17h1v1h-1zM26 17h1v1h-1zM30 17h3v1h-3zM6 18h2v1h-2zM9 18h4v1h-4zM16 18h1v1h-1zM18 18h1v1h-1zM20 18h1v1h-1zM23 18h5v1h-5zM30 18h3v1h-3zM4 19h1v1h-1zM7 19h1v1h-1zM11 19h3v1h-3zM18 19h3v1h-3zM22 19h1v1h-1zM24 19h2v1h-2zM27 19h1v1h-1zM31 19h1v1h-1zM5 20h7v1h-7zM15 20h1v1h-1zM19 20h1v1h-1zM23 20h3v1h-3zM27 20h3v1h-3zM31 20h1v1h-1zM5 21h1v1h-1zM7 21h2v1h-2zM11 21h1v1h-1zM14 21h2v1h-2zM17 21h3v1h-3zM21 21h1v1h-1zM24 21h1v1h-1zM29 21h3v1h-3zM4 22h1v1h-1zM9 22h3v1h-3zM15 22h3v1h-3zM19 22h3v1h-3zM24 22h1v1h-1zM30 22h1v1h-1zM6 23h1v1h-1zM8 23h1v1h-1zM20 23h2v1h-2zM25 23h1v1h-1zM27 23h1v1h-1zM30 23h1v1h-1zM5 24h1v1h-1zM8 24h1v1h-1zM10 24h1v1h-1zM12 24h3v1h-3zM16 24h3v1h-3zM20 24h11v1h-11zM12 25h2v1h-2zM15 25h2v1h-2zM20 25h1v1h-1zM24 25h1v1h-1zM28 25h5v1h-5zM4 26h7v1h-7zM12 26h1v1h-1zM15 26h2v1h-2zM20 26h1v1h-1zM22 26h3v1h-3zM26 26h1v1h-1zM28 26h2v1h-2zM31 26h1v1h-1zM4 27h1v1h-1zM10 27h1v1h-1zM12 27h1v1h-1zM15 27h1v1h-1zM17 27h1v1h-1zM19 27h2v1h-2zM24 27h1v1h-1zM28 27h2v1h-2zM4 28h1v1h-1zM6 28h3v1h-3zM10 28h1v1h-1zM13 28h2v1h-2zM16 28h1v1h-1zM19 28h1v1h-1zM21 28h1v1h-1zM24 28h5v1h-5zM30 28h3v1h-3zM4 29h1v1h-1zM6 29h3v1h-3zM10 29h1v1h-1zM12 29h3v1h-3zM17 29h5v1h-5zM24 29h1v1h-1zM28 29h2v1h-2zM32 29h1v1h-1zM4 30h1v1h-1zM6 30h3v1h-3zM10 30h1v1h-1zM12 30h3v1h-3zM17 30h2v1h-2zM20 30h1v1h-1zM22 30h1v1h-1zM27 30h1v1h-1zM30 30h1v1h-1zM32 30h1v1h-1zM4 31h1v1h-1zM10 31h1v1h-1zM15 31h1v1h-1zM17 31h2v1h-2zM24 31h1v1h-1zM26 31h4v1h-4zM31 31h1v1h-1zM4 32h7v1h-7zM12 32h2v1h-2zM16 32h2v1h-2zM20 32h1v1h-1zM22 32h4v1h-4zM27 32h1v1h-1zM29 32h1v1h-1zM31 32h1v1h-1z" fill="#0B1620" shape-rendering="crispEdges"/><text x="18.5" y="38.4" text-anchor="middle" font-size="2" font-weight="700" font-family="system-ui,Segoe UI,Helvetica,Arial,sans-serif" fill="#0B1620">SD - Safety Detect</text></svg>
